PathFileType	4	(X/Y/Z)	s10c0403.trc
DataRate	CameraRate	NumFrames	NumMarkers	Units	OrigDataRate	OrigDataStartFrame	OrigNumFrames
200	200	4	49	mm	200	1000	2000
Frame#	Time	racr			lacr			c7			jug			rlel			rdr			llel			ldr			s2			lic			ric			lasi			rasi			rpsi			lpsi			rgt			lgt			rth1			rth2			rth3			rth4			rlfc			rmfc			rsh1			rsh2			rsh3			rsh4			rlmal			rmmal			rcal			rtoe			rmt5			lth1			lth2			lth4			lth3			llfc			lmfc			llmal			lcal			lmt5			lsh1			lsh2			lsh3			lsh4			ltoe			SBIKE			LBIKE			RBIKE			
		X1	Y1	Z1	X2	Y2	Z2	X3	Y3	Z3	X4	Y4	Z4	X5	Y5	Z5	X6	Y6	Z6	X7	Y7	Z7	X8	Y8	Z8	X9	Y9	Z9	X10	Y10	Z10	X11	Y11	Z11	X12	Y12	Z12	X13	Y13	Z13	X14	Y14	Z14	X15	Y15	Z15	X16	Y16	Z16	X17	Y17	Z17	X18	Y18	Z18	X19	Y19	Z19	X20	Y20	Z20	X21	Y21	Z21	X22	Y22	Z22	X23	Y23	Z23	X24	Y24	Z24	X25	Y25	Z25	X26	Y26	Z26	X27	Y27	Z27	X28	Y28	Z28	X29	Y29	Z29	X30	Y30	Z30	X31	Y31	Z31	X32	Y32	Z32	X33	Y33	Z33	X34	Y34	Z34	X35	Y35	Z35	X36	Y36	Z36	X37	Y37	Z37	X38	Y38	Z38	X39	Y39	Z39	X40	Y40	Z40	X41	Y41	Z41	X42	Y42	Z42	X43	Y43	Z43	X44	Y44	Z44	X45	Y45	Z45	X46	Y46	Z46	X47	Y47	Z47	X48	Y48	Z48	X49	Y49	Z49	
1000	5.0000	691.771091	1342.010696	-71.052612	624.972998	1340.599219	-352.543156	632.100169	1359.559637	-213.012091	639.836688	1208.133526	-194.825355	578.831484	1098.093084	54.309481	618.993937	908.219273	-33.765138	533.824928	1102.624774	-493.060665	621.425730	907.315536	-436.962185	113.544748	1127.161392	-237.500279	304.726032	1125.428609	-350.430230	274.306645	1124.670382	-80.312495	312.390686	1040.290966	-328.793006	267.918163	1049.721220	-83.105762	151.348104	1182.863259	-179.343614	177.189462	1188.807709	-288.476593	159.221723	1035.974845	-39.560498	187.118313	1006.986890	-420.460699	265.643163	940.560036	-19.014095	353.017235	929.235732	-30.089547	420.513727	877.771898	-30.474695	365.505607	964.126681	-36.973088	524.376354	836.602738	-49.333132	523.640422	821.592091	-176.528697	437.891975	765.090959	-23.653942	393.512812	688.437964	-33.804244	318.917784	645.365129	-38.166419	416.412052	668.477682	-57.409446	239.771560	560.372743	-54.564737	266.838914	567.024472	-133.127293	181.908044	565.281266	-100.275069	383.262600	428.470557	-108.742216	301.781600	444.846346	-44.100870	218.213508	886.211863	-434.518688	252.176692	808.393700	-417.903090	286.973955	815.924453	-406.917702	241.671780	720.818034	-410.829395	252.883283	613.266443	-400.915449	250.923432	600.133623	-283.472004	-4.160263	333.403831	-388.076596	-60.172578	335.741399	-340.407117	48.317785	194.715837	-399.646082	148.987943	539.499087	-426.007491	121.450524	457.607151	-411.930164	53.491865	400.196309	-402.441428	149.344198	442.153837	-390.549721	127.493512	177.540352	-348.216799	-217.639482	831.343746	-213.945774	-103.932038	80.720284	-418.390487	-103.923933	80.711950	-18.259968	
1001	5.0050	692.181258	1340.405352	-71.289524	625.177673	1341.522499	-352.562826	633.047015	1359.492133	-212.655511	639.193680	1207.734799	-195.631738	577.924873	1097.736364	54.061950	618.966417	908.288316	-33.622706	534.503573	1103.485837	-492.473444	621.538263	907.406499	-436.618912	113.045391	1130.075780	-234.503961	302.103951	1129.579140	-350.384578	274.790851	1126.379560	-78.428441	311.767655	1043.815462	-330.073290	268.425579	1051.292268	-82.669084	151.520937	1185.584509	-175.998385	176.128097	1191.599869	-285.095984	160.452169	1037.983447	-37.245515	185.679496	1010.549094	-419.091468	264.923794	939.204978	-17.950351	351.890443	926.460137	-29.601421	418.405205	873.680627	-31.234404	365.055263	961.180917	-35.971321	521.784069	831.392273	-50.427329	519.911279	817.403229	-177.524741	435.603559	759.727804	-24.345752	392.809058	681.969676	-33.852423	318.952914	637.545632	-37.486235	416.017267	662.103879	-57.436764	241.816155	550.017393	-53.773884	268.530305	557.677729	-132.197439	183.592444	552.916551	-99.195801	389.629961	423.734095	-108.726131	308.326593	437.274905	-43.190081	219.251708	889.184744	-433.257766	256.065106	812.440649	-417.205823	290.525125	821.148091	-406.223146	248.888558	724.507461	-410.679273	262.790470	616.629638	-400.903698	261.039625	602.601864	-283.953938	-1.703079	343.798978	-388.450993	-56.949312	349.115090	-340.188171	42.980483	201.980013	-399.294181	156.694481	545.493568	-426.233688	126.984142	464.379934	-411.984014	57.472935	408.817492	-402.600685	154.355059	448.222302	-390.386709	120.855970	179.974054	-347.968970	-217.582441	831.371998	-213.849270	-103.906701	80.743552	-418.368874	-103.880081	80.725949	-18.245535	
1002	5.0100	691.982145	1338.862746	-71.844720	625.520487	1342.384241	-352.784831	633.959866	1359.463662	-212.506529	638.526272	1207.476365	-196.387696	576.869429	1097.410887	53.060033	619.412225	908.312126	-33.422751	535.212529	1104.321744	-492.008193	621.663872	907.395053	-436.352317	112.535822	1132.901894	-231.632240	299.499986	1133.548199	-350.561635	275.527510	1127.804750	-76.521605	311.087481	1047.279152	-331.714583	269.222719	1052.737439	-82.318862	151.976138	1188.047630	-172.518455	175.230641	1194.182814	-281.671361	161.598451	1039.669865	-35.141182	184.059765	1014.088813	-417.571811	264.082598	938.029742	-16.743743	350.761893	923.287572	-29.132264	415.997918	869.015910	-32.021104	364.654452	957.850006	-35.113014	518.882214	825.470273	-51.556781	515.112905	812.491336	-178.484217	433.702692	752.701423	-26.092394	391.846800	674.398281	-33.946010	318.805092	628.754563	-36.751061	415.690637	655.002890	-57.211324	243.488272	539.384464	-52.762424	269.677913	547.739154	-131.754411	184.971991	540.115464	-98.542892	395.342862	418.405528	-108.632027	313.456676	428.505025	-43.273513	220.327469	891.926111	-431.979659	260.823389	816.988733	-417.387893	293.527979	825.902319	-404.613959	256.483811	728.349166	-410.491358	273.012944	620.187551	-400.748324	271.559505	605.497384	-284.068856	1.422895	353.975681	-389.013226	-53.376103	362.263590	-340.365926	37.870511	209.184213	-398.900900	164.957164	551.370622	-426.438692	132.960113	471.158600	-412.050132	62.021332	417.506831	-403.023621	159.816281	454.399280	-390.325133	114.414217	182.871235	-347.747959	-217.517787	831.343414	-213.677491	-103.906738	80.785160	-418.369734	-103.875132	80.740129	-18.229067	
1003	5.0150	691.654226	1337.807904	-72.132436	626.133330	1343.494095	-353.975612	634.811312	1359.490696	-212.171315	637.154875	1207.457852	-198.473119	575.072995	1097.617065	52.664451	619.406180	908.382478	-33.172365	536.012243	1105.023076	-491.679042	621.792382	907.389921	-436.116249	112.284505	1135.664257	-228.334570	296.833754	1137.329875	-350.898547	276.427061	1129.170991	-74.413187	310.106955	1050.367610	-333.470751	270.235227	1053.994530	-82.196564	152.584094	1190.188284	-169.143250	174.339485	1196.584720	-278.012147	162.914579	1041.175385	-33.113065	182.397611	1017.456693	-416.060368	263.294470	936.418860	-15.787411	349.528636	919.759062	-28.936231	413.375761	863.797188	-32.744592	364.363893	954.023634	-34.326522	515.537280	818.987637	-52.695314	509.657203	806.934677	-179.084008	430.923378	744.958453	-26.544217	390.658959	665.883368	-34.051719	318.461875	618.751438	-36.220576	414.409635	646.880797	-57.614590	244.913893	527.708634	-52.283144	270.688384	537.295415	-131.362863	186.227387	526.696744	-97.835977	400.428081	412.601929	-108.556153	318.237551	419.591867	-43.098799	221.447455	894.397428	-430.711472	264.972579	821.057550	-416.705084	297.287855	831.325370	-403.876061	264.502170	732.166571	-410.306122	283.306834	623.740056	-400.130063	282.215597	608.562725	-283.998647	4.868975	363.853811	-389.651148	-49.551262	374.799242	-340.462491	33.387140	217.163391	-398.824745	173.507078	557.409199	-426.615811	139.382862	477.979761	-412.190877	66.923353	426.303545	-403.630148	165.333410	460.874116	-390.132760	108.094815	186.336649	-347.528341	-217.471980	831.364122	-213.592627	-103.889781	80.814319	-418.377253	-103.862624	80.751466	-18.221931	
